<svg width="40" height="40" viewBox="0 0 40 40" fill="none" xmlns="http://www.w3.org/2000/svg">
<path d="M33.3353 34.9056L25.9852 27.5556C24.4734 29.054 22.5629 30.6319 20.1801 32.2675C17.7842 30.623 15.866 29.0368 14.3502 27.5312L6.82971 35.0517C10.348 38.1327 14.9559 40 20 40C25.1233 40 29.7967 38.0736 33.3353 34.9056Z" fill="#EF4E4B"/>
<path d="M26.8365 12.549C24.8836 11.9365 22.6644 12.3011 21.1536 13.8617L20.1801 14.8674L19.2065 13.8617C17.686 12.2912 15.4482 11.932 13.4863 12.5608L6.32816 5.40262C9.90437 2.0518 14.7126 0 20 0C25.3666 0 30.2394 2.11367 33.8316 5.55393L26.8365 12.549Z" fill="#EF4E4B"/>
<path d="M6.27484 7.8452L5.09435 6.66471C1.92639 10.2033 0 14.8767 0 20C0 25.3665 2.11367 30.2394 5.55393 33.8315L6.73274 32.6527C3.59395 29.3625 1.66667 24.9063 1.66667 20C1.66667 15.3712 3.38208 11.1431 6.21185 7.91664C6.23278 7.89277 6.25378 7.86896 6.27484 7.8452Z" fill="#EF4E4B"/>
<path d="M33.4182 32.4926L34.5974 33.6718C37.9482 30.0956 40 25.2874 40 20C40 14.9559 38.1327 10.348 35.0517 6.82968L33.8704 8.01103C36.6511 11.2253 38.3333 15.4162 38.3333 20C38.3333 24.8272 36.4677 29.2186 33.4182 32.4926Z" fill="#EF4E4B"/>
<path d="M32.6884 9.19295C35.1692 12.1028 36.6667 15.8765 36.6667 20C36.6667 24.3669 34.9872 28.3416 32.2388 31.3133L27.2001 26.2746C28.4176 24.9027 29.2977 23.6078 29.9028 22.4086C31.3831 19.4741 31.2146 17.1392 30.3801 15.5022C29.9304 14.6201 29.2782 13.9024 28.5122 13.3692L32.6884 9.19295Z" fill="#EF4E4B"/>
<path d="M7.4557 9.02606L11.8191 13.3894C11.0656 13.9205 10.424 14.6312 9.98005 15.5022C9.14554 17.1392 8.97697 19.4741 10.4573 22.4086C11.0586 23.6003 11.9314 24.8863 13.1369 26.2485L7.91161 31.4739C5.07426 28.4855 3.33333 24.446 3.33333 20C3.33333 15.7958 4.8878 11.9588 7.4557 9.02606Z" fill="#EF4E4B"/>
</svg>
